<mxfile host="app.diagrams.net" modified="2023-12-22T16:49:35.056Z" agent="Mozilla/5.0 (Windows NT 10.0; Win64; x64) AppleWebKit/537.36 (KHTML, like Gecko) Chrome/120.0.0.0 Safari/537.36" etag="HowoOuQcwj9CNt8eoETx" version="22.1.11" type="github">
  <diagram id="R2lEEEUBdFMjLlhIrx00" name="Page-1">
    <mxGraphModel dx="2676" dy="1873" grid="1" gridSize="10" guides="1" tooltips="1" connect="1" arrows="1" fold="1" page="1" pageScale="1" pageWidth="850" pageHeight="1100" math="0" shadow="0" extFonts="Permanent Marker^https://fonts.googleapis.com/css?family=Permanent+Marker">
      <root>
        <mxCell id="0" />
        <mxCell id="1" parent="0" />
        <mxCell id="bVzP4BpmjJLJU32e2Kec-34" value="User" style="rounded=0;whiteSpace=wrap;html=1;" parent="1" vertex="1">
          <mxGeometry x="130" y="160" width="120" height="60" as="geometry" />
        </mxCell>
        <mxCell id="bVzP4BpmjJLJU32e2Kec-35" value="&lt;b&gt;&lt;u&gt;mid&lt;/u&gt;&lt;/b&gt;" style="ellipse;whiteSpace=wrap;html=1;" parent="1" vertex="1">
          <mxGeometry x="270" width="80" height="50" as="geometry" />
        </mxCell>
        <mxCell id="bVzP4BpmjJLJU32e2Kec-36" value="sex" style="ellipse;whiteSpace=wrap;html=1;" parent="1" vertex="1">
          <mxGeometry x="120" y="-30" width="80" height="50" as="geometry" />
        </mxCell>
        <mxCell id="bVzP4BpmjJLJU32e2Kec-37" value="birthday" style="ellipse;whiteSpace=wrap;html=1;" parent="1" vertex="1">
          <mxGeometry x="50" width="80" height="50" as="geometry" />
        </mxCell>
        <mxCell id="bVzP4BpmjJLJU32e2Kec-39" value="level" style="ellipse;whiteSpace=wrap;html=1;" parent="1" vertex="1">
          <mxGeometry x="-20" y="40" width="80" height="50" as="geometry" />
        </mxCell>
        <mxCell id="bVzP4BpmjJLJU32e2Kec-40" value="sign" style="ellipse;whiteSpace=wrap;html=1;" parent="1" vertex="1">
          <mxGeometry x="-70" y="80" width="80" height="50" as="geometry" />
        </mxCell>
        <mxCell id="bVzP4BpmjJLJU32e2Kec-42" value="identity" style="ellipse;whiteSpace=wrap;html=1;" parent="1" vertex="1">
          <mxGeometry x="-90" y="130" width="80" height="50" as="geometry" />
        </mxCell>
        <mxCell id="bVzP4BpmjJLJU32e2Kec-43" value="password" style="ellipse;whiteSpace=wrap;html=1;" parent="1" vertex="1">
          <mxGeometry x="-100" y="180" width="80" height="50" as="geometry" />
        </mxCell>
        <mxCell id="bVzP4BpmjJLJU32e2Kec-44" value="name" style="ellipse;whiteSpace=wrap;html=1;" parent="1" vertex="1">
          <mxGeometry x="200" y="-30" width="80" height="50" as="geometry" />
        </mxCell>
        <mxCell id="bVzP4BpmjJLJU32e2Kec-45" value="qq" style="ellipse;whiteSpace=wrap;html=1;" parent="1" vertex="1">
          <mxGeometry x="-70" y="230" width="80" height="50" as="geometry" />
        </mxCell>
        <mxCell id="bVzP4BpmjJLJU32e2Kec-46" value="" style="endArrow=none;html=1;rounded=0;exitX=0.5;exitY=0;exitDx=0;exitDy=0;entryX=0;entryY=1;entryDx=0;entryDy=0;" parent="1" source="bVzP4BpmjJLJU32e2Kec-34" target="bVzP4BpmjJLJU32e2Kec-35" edge="1">
          <mxGeometry width="50" height="50" relative="1" as="geometry">
            <mxPoint x="210" y="120" as="sourcePoint" />
            <mxPoint x="260" y="70" as="targetPoint" />
          </mxGeometry>
        </mxCell>
        <mxCell id="bVzP4BpmjJLJU32e2Kec-47" value="" style="endArrow=none;html=1;rounded=0;entryX=0.5;entryY=1;entryDx=0;entryDy=0;exitX=0.5;exitY=0;exitDx=0;exitDy=0;" parent="1" source="bVzP4BpmjJLJU32e2Kec-34" target="bVzP4BpmjJLJU32e2Kec-36" edge="1">
          <mxGeometry width="50" height="50" relative="1" as="geometry">
            <mxPoint x="180" y="150" as="sourcePoint" />
            <mxPoint x="270" y="80" as="targetPoint" />
          </mxGeometry>
        </mxCell>
        <mxCell id="bVzP4BpmjJLJU32e2Kec-48" value="" style="endArrow=none;html=1;rounded=0;exitX=0.5;exitY=0;exitDx=0;exitDy=0;entryX=0.5;entryY=1;entryDx=0;entryDy=0;" parent="1" source="bVzP4BpmjJLJU32e2Kec-34" target="bVzP4BpmjJLJU32e2Kec-37" edge="1">
          <mxGeometry width="50" height="50" relative="1" as="geometry">
            <mxPoint x="200" y="170" as="sourcePoint" />
            <mxPoint x="280" y="90" as="targetPoint" />
          </mxGeometry>
        </mxCell>
        <mxCell id="bVzP4BpmjJLJU32e2Kec-49" value="" style="endArrow=none;html=1;rounded=0;entryX=1;entryY=1;entryDx=0;entryDy=0;exitX=0.5;exitY=0;exitDx=0;exitDy=0;" parent="1" source="bVzP4BpmjJLJU32e2Kec-34" target="bVzP4BpmjJLJU32e2Kec-39" edge="1">
          <mxGeometry width="50" height="50" relative="1" as="geometry">
            <mxPoint x="180" y="150" as="sourcePoint" />
            <mxPoint x="290" y="100" as="targetPoint" />
          </mxGeometry>
        </mxCell>
        <mxCell id="bVzP4BpmjJLJU32e2Kec-50" value="" style="endArrow=none;html=1;rounded=0;exitX=0;exitY=0.5;exitDx=0;exitDy=0;entryX=1;entryY=0.5;entryDx=0;entryDy=0;" parent="1" source="bVzP4BpmjJLJU32e2Kec-34" target="bVzP4BpmjJLJU32e2Kec-40" edge="1">
          <mxGeometry width="50" height="50" relative="1" as="geometry">
            <mxPoint x="220" y="190" as="sourcePoint" />
            <mxPoint x="300" y="110" as="targetPoint" />
          </mxGeometry>
        </mxCell>
        <mxCell id="bVzP4BpmjJLJU32e2Kec-52" value="" style="endArrow=none;html=1;rounded=0;exitX=1;exitY=0.5;exitDx=0;exitDy=0;entryX=0;entryY=0.5;entryDx=0;entryDy=0;" parent="1" source="bVzP4BpmjJLJU32e2Kec-42" target="bVzP4BpmjJLJU32e2Kec-34" edge="1">
          <mxGeometry width="50" height="50" relative="1" as="geometry">
            <mxPoint x="240" y="210" as="sourcePoint" />
            <mxPoint x="320" y="130" as="targetPoint" />
          </mxGeometry>
        </mxCell>
        <mxCell id="bVzP4BpmjJLJU32e2Kec-53" value="" style="endArrow=none;html=1;rounded=0;exitX=1;exitY=0;exitDx=0;exitDy=0;entryX=0;entryY=0.5;entryDx=0;entryDy=0;" parent="1" source="bVzP4BpmjJLJU32e2Kec-43" target="bVzP4BpmjJLJU32e2Kec-34" edge="1">
          <mxGeometry width="50" height="50" relative="1" as="geometry">
            <mxPoint x="250" y="220" as="sourcePoint" />
            <mxPoint x="330" y="140" as="targetPoint" />
          </mxGeometry>
        </mxCell>
        <mxCell id="bVzP4BpmjJLJU32e2Kec-54" value="" style="endArrow=none;html=1;rounded=0;exitX=0.5;exitY=1;exitDx=0;exitDy=0;entryX=0.5;entryY=0;entryDx=0;entryDy=0;" parent="1" source="bVzP4BpmjJLJU32e2Kec-44" target="bVzP4BpmjJLJU32e2Kec-34" edge="1">
          <mxGeometry width="50" height="50" relative="1" as="geometry">
            <mxPoint x="260" y="230" as="sourcePoint" />
            <mxPoint x="180" y="150" as="targetPoint" />
          </mxGeometry>
        </mxCell>
        <mxCell id="bVzP4BpmjJLJU32e2Kec-55" value="" style="endArrow=none;html=1;rounded=0;exitX=0.5;exitY=0;exitDx=0;exitDy=0;entryX=0;entryY=0.5;entryDx=0;entryDy=0;" parent="1" source="bVzP4BpmjJLJU32e2Kec-45" target="bVzP4BpmjJLJU32e2Kec-34" edge="1">
          <mxGeometry width="50" height="50" relative="1" as="geometry">
            <mxPoint x="270" y="240" as="sourcePoint" />
            <mxPoint x="350" y="160" as="targetPoint" />
          </mxGeometry>
        </mxCell>
        <mxCell id="bVzP4BpmjJLJU32e2Kec-56" value="wechat" style="ellipse;whiteSpace=wrap;html=1;" parent="1" vertex="1">
          <mxGeometry x="-40" y="280" width="80" height="50" as="geometry" />
        </mxCell>
        <mxCell id="bVzP4BpmjJLJU32e2Kec-58" value="" style="endArrow=none;html=1;rounded=0;exitX=0.5;exitY=0;exitDx=0;exitDy=0;entryX=0;entryY=0.5;entryDx=0;entryDy=0;" parent="1" source="bVzP4BpmjJLJU32e2Kec-56" target="bVzP4BpmjJLJU32e2Kec-34" edge="1">
          <mxGeometry width="50" height="50" relative="1" as="geometry">
            <mxPoint y="290" as="sourcePoint" />
            <mxPoint x="130" y="190" as="targetPoint" />
          </mxGeometry>
        </mxCell>
        <mxCell id="bVzP4BpmjJLJU32e2Kec-73" value="coin_number" style="ellipse;whiteSpace=wrap;html=1;" parent="1" vertex="1">
          <mxGeometry x="20" y="320" width="80" height="50" as="geometry" />
        </mxCell>
        <mxCell id="bVzP4BpmjJLJU32e2Kec-92" value="" style="endArrow=none;html=1;rounded=0;entryX=0.5;entryY=0;entryDx=0;entryDy=0;exitX=0;exitY=0.5;exitDx=0;exitDy=0;" parent="1" source="bVzP4BpmjJLJU32e2Kec-34" target="bVzP4BpmjJLJU32e2Kec-73" edge="1">
          <mxGeometry width="50" height="50" relative="1" as="geometry">
            <mxPoint x="150" y="240" as="sourcePoint" />
            <mxPoint x="300" y="360" as="targetPoint" />
          </mxGeometry>
        </mxCell>
        <mxCell id="bVzP4BpmjJLJU32e2Kec-101" value="following" style="rhombus;whiteSpace=wrap;html=1;rotation=-10;" parent="1" vertex="1">
          <mxGeometry x="390" y="100" width="130" height="80" as="geometry" />
        </mxCell>
        <mxCell id="bVzP4BpmjJLJU32e2Kec-102" value="" style="endArrow=none;html=1;rounded=0;entryX=0;entryY=0.5;entryDx=0;entryDy=0;exitX=1;exitY=0.5;exitDx=0;exitDy=0;" parent="1" source="bVzP4BpmjJLJU32e2Kec-34" target="bVzP4BpmjJLJU32e2Kec-101" edge="1">
          <mxGeometry width="50" height="50" relative="1" as="geometry">
            <mxPoint x="340" y="340" as="sourcePoint" />
            <mxPoint x="390" y="290" as="targetPoint" />
          </mxGeometry>
        </mxCell>
        <mxCell id="bVzP4BpmjJLJU32e2Kec-120" value="Video" style="rounded=0;whiteSpace=wrap;html=1;" parent="1" vertex="1">
          <mxGeometry x="710" y="340" width="120" height="60" as="geometry" />
        </mxCell>
        <mxCell id="bVzP4BpmjJLJU32e2Kec-121" value="&lt;b&gt;&lt;u&gt;bv&lt;/u&gt;&lt;/b&gt;" style="ellipse;whiteSpace=wrap;html=1;" parent="1" vertex="1">
          <mxGeometry x="970" y="250" width="80" height="50" as="geometry" />
        </mxCell>
        <mxCell id="bVzP4BpmjJLJU32e2Kec-122" value="ownerMid" style="ellipse;whiteSpace=wrap;html=1;" parent="1" vertex="1">
          <mxGeometry x="1040" y="350" width="80" height="50" as="geometry" />
        </mxCell>
        <mxCell id="bVzP4BpmjJLJU32e2Kec-123" value="ownerName" style="ellipse;whiteSpace=wrap;html=1;" parent="1" vertex="1">
          <mxGeometry x="1020" y="400" width="80" height="50" as="geometry" />
        </mxCell>
        <mxCell id="bVzP4BpmjJLJU32e2Kec-124" value="commitTime" style="ellipse;whiteSpace=wrap;html=1;" parent="1" vertex="1">
          <mxGeometry x="980" y="450" width="80" height="50" as="geometry" />
        </mxCell>
        <mxCell id="bVzP4BpmjJLJU32e2Kec-125" value="reviewTime" style="ellipse;whiteSpace=wrap;html=1;" parent="1" vertex="1">
          <mxGeometry x="950" y="500" width="80" height="50" as="geometry" />
        </mxCell>
        <mxCell id="bVzP4BpmjJLJU32e2Kec-126" value="publicTime" style="ellipse;whiteSpace=wrap;html=1;" parent="1" vertex="1">
          <mxGeometry x="900" y="540" width="80" height="50" as="geometry" />
        </mxCell>
        <mxCell id="bVzP4BpmjJLJU32e2Kec-128" value="title" style="ellipse;whiteSpace=wrap;html=1;" parent="1" vertex="1">
          <mxGeometry x="1010" y="300" width="80" height="50" as="geometry" />
        </mxCell>
        <mxCell id="bVzP4BpmjJLJU32e2Kec-130" value="" style="endArrow=none;html=1;rounded=0;exitX=1;exitY=0.5;exitDx=0;exitDy=0;entryX=0;entryY=1;entryDx=0;entryDy=0;" parent="1" source="bVzP4BpmjJLJU32e2Kec-120" target="bVzP4BpmjJLJU32e2Kec-121" edge="1">
          <mxGeometry width="50" height="50" relative="1" as="geometry">
            <mxPoint x="790" y="300" as="sourcePoint" />
            <mxPoint x="840" y="250" as="targetPoint" />
          </mxGeometry>
        </mxCell>
        <mxCell id="bVzP4BpmjJLJU32e2Kec-131" value="" style="endArrow=none;html=1;rounded=0;entryX=0;entryY=0.5;entryDx=0;entryDy=0;exitX=1;exitY=0.5;exitDx=0;exitDy=0;" parent="1" source="bVzP4BpmjJLJU32e2Kec-120" target="bVzP4BpmjJLJU32e2Kec-122" edge="1">
          <mxGeometry width="50" height="50" relative="1" as="geometry">
            <mxPoint x="760" y="330" as="sourcePoint" />
            <mxPoint x="850" y="260" as="targetPoint" />
          </mxGeometry>
        </mxCell>
        <mxCell id="bVzP4BpmjJLJU32e2Kec-132" value="" style="endArrow=none;html=1;rounded=0;exitX=1;exitY=0.5;exitDx=0;exitDy=0;entryX=0;entryY=0.5;entryDx=0;entryDy=0;" parent="1" source="bVzP4BpmjJLJU32e2Kec-120" target="bVzP4BpmjJLJU32e2Kec-123" edge="1">
          <mxGeometry width="50" height="50" relative="1" as="geometry">
            <mxPoint x="780" y="350" as="sourcePoint" />
            <mxPoint x="860" y="270" as="targetPoint" />
          </mxGeometry>
        </mxCell>
        <mxCell id="bVzP4BpmjJLJU32e2Kec-133" value="" style="endArrow=none;html=1;rounded=0;entryX=0;entryY=0;entryDx=0;entryDy=0;exitX=1;exitY=0.5;exitDx=0;exitDy=0;" parent="1" source="bVzP4BpmjJLJU32e2Kec-120" target="bVzP4BpmjJLJU32e2Kec-124" edge="1">
          <mxGeometry width="50" height="50" relative="1" as="geometry">
            <mxPoint x="760" y="330" as="sourcePoint" />
            <mxPoint x="870" y="280" as="targetPoint" />
          </mxGeometry>
        </mxCell>
        <mxCell id="bVzP4BpmjJLJU32e2Kec-134" value="" style="endArrow=none;html=1;rounded=0;exitX=0.5;exitY=1;exitDx=0;exitDy=0;entryX=0;entryY=0;entryDx=0;entryDy=0;" parent="1" source="bVzP4BpmjJLJU32e2Kec-120" target="bVzP4BpmjJLJU32e2Kec-125" edge="1">
          <mxGeometry width="50" height="50" relative="1" as="geometry">
            <mxPoint x="800" y="370" as="sourcePoint" />
            <mxPoint x="880" y="290" as="targetPoint" />
          </mxGeometry>
        </mxCell>
        <mxCell id="bVzP4BpmjJLJU32e2Kec-135" value="" style="endArrow=none;html=1;rounded=0;exitX=0.5;exitY=0;exitDx=0;exitDy=0;entryX=0.5;entryY=1;entryDx=0;entryDy=0;" parent="1" source="bVzP4BpmjJLJU32e2Kec-126" target="bVzP4BpmjJLJU32e2Kec-120" edge="1">
          <mxGeometry width="50" height="50" relative="1" as="geometry">
            <mxPoint x="820" y="390" as="sourcePoint" />
            <mxPoint x="900" y="310" as="targetPoint" />
          </mxGeometry>
        </mxCell>
        <mxCell id="bVzP4BpmjJLJU32e2Kec-137" value="" style="endArrow=none;html=1;rounded=0;exitX=0;exitY=0.5;exitDx=0;exitDy=0;entryX=1;entryY=0.5;entryDx=0;entryDy=0;" parent="1" source="bVzP4BpmjJLJU32e2Kec-128" target="bVzP4BpmjJLJU32e2Kec-120" edge="1">
          <mxGeometry width="50" height="50" relative="1" as="geometry">
            <mxPoint x="840" y="410" as="sourcePoint" />
            <mxPoint x="760" y="330" as="targetPoint" />
          </mxGeometry>
        </mxCell>
        <mxCell id="bVzP4BpmjJLJU32e2Kec-141" value="reviewer" style="ellipse;whiteSpace=wrap;html=1;" parent="1" vertex="1">
          <mxGeometry x="670" y="590" width="80" height="50" as="geometry" />
        </mxCell>
        <mxCell id="bVzP4BpmjJLJU32e2Kec-144" value="description" style="ellipse;whiteSpace=wrap;html=1;" parent="1" vertex="1">
          <mxGeometry x="750" y="590" width="80" height="50" as="geometry" />
        </mxCell>
        <mxCell id="bVzP4BpmjJLJU32e2Kec-145" value="duration" style="ellipse;whiteSpace=wrap;html=1;" parent="1" vertex="1">
          <mxGeometry x="830" y="570" width="80" height="50" as="geometry" />
        </mxCell>
        <mxCell id="bVzP4BpmjJLJU32e2Kec-146" value="" style="endArrow=none;html=1;rounded=0;entryX=0.5;entryY=0;entryDx=0;entryDy=0;exitX=0.5;exitY=1;exitDx=0;exitDy=0;" parent="1" source="bVzP4BpmjJLJU32e2Kec-120" target="bVzP4BpmjJLJU32e2Kec-144" edge="1">
          <mxGeometry width="50" height="50" relative="1" as="geometry">
            <mxPoint x="1210" y="630" as="sourcePoint" />
            <mxPoint x="1140" y="560" as="targetPoint" />
          </mxGeometry>
        </mxCell>
        <mxCell id="bVzP4BpmjJLJU32e2Kec-149" value="" style="endArrow=none;html=1;rounded=0;entryX=0.5;entryY=0;entryDx=0;entryDy=0;exitX=0.5;exitY=1;exitDx=0;exitDy=0;" parent="1" source="bVzP4BpmjJLJU32e2Kec-120" target="bVzP4BpmjJLJU32e2Kec-141" edge="1">
          <mxGeometry width="50" height="50" relative="1" as="geometry">
            <mxPoint x="730" y="420" as="sourcePoint" />
            <mxPoint x="880" y="540" as="targetPoint" />
          </mxGeometry>
        </mxCell>
        <mxCell id="bVzP4BpmjJLJU32e2Kec-150" value="" style="endArrow=none;html=1;rounded=0;entryX=0.5;entryY=0;entryDx=0;entryDy=0;exitX=0.5;exitY=1;exitDx=0;exitDy=0;" parent="1" source="bVzP4BpmjJLJU32e2Kec-120" target="bVzP4BpmjJLJU32e2Kec-145" edge="1">
          <mxGeometry width="50" height="50" relative="1" as="geometry">
            <mxPoint x="820" y="375" as="sourcePoint" />
            <mxPoint x="960" y="530" as="targetPoint" />
          </mxGeometry>
        </mxCell>
        <mxCell id="bVzP4BpmjJLJU32e2Kec-170" value="own" style="rhombus;whiteSpace=wrap;html=1;" parent="1" vertex="1">
          <mxGeometry x="350" y="490" width="140" height="80" as="geometry" />
        </mxCell>
        <mxCell id="bVzP4BpmjJLJU32e2Kec-172" value="" style="endArrow=none;html=1;rounded=0;entryX=0.5;entryY=1;entryDx=0;entryDy=0;exitX=0.5;exitY=0;exitDx=0;exitDy=0;" parent="1" source="Wf-vbxTbmXmnl0LeUo7J-2" target="bVzP4BpmjJLJU32e2Kec-170" edge="1">
          <mxGeometry width="50" height="50" relative="1" as="geometry">
            <mxPoint x="560" y="670" as="sourcePoint" />
            <mxPoint x="430" y="580" as="targetPoint" />
          </mxGeometry>
        </mxCell>
        <mxCell id="bVzP4BpmjJLJU32e2Kec-174" value="" style="endArrow=none;html=1;rounded=0;exitX=0.5;exitY=0;exitDx=0;exitDy=0;entryX=0;entryY=0.5;entryDx=0;entryDy=0;" parent="1" source="bVzP4BpmjJLJU32e2Kec-170" target="bVzP4BpmjJLJU32e2Kec-120" edge="1">
          <mxGeometry width="50" height="50" relative="1" as="geometry">
            <mxPoint x="510" y="870" as="sourcePoint" />
            <mxPoint x="290" y="800" as="targetPoint" />
          </mxGeometry>
        </mxCell>
        <mxCell id="bVzP4BpmjJLJU32e2Kec-187" value="View" style="rounded=0;whiteSpace=wrap;html=1;" parent="1" vertex="1">
          <mxGeometry x="250" y="660" width="120" height="60" as="geometry" />
        </mxCell>
        <mxCell id="bVzP4BpmjJLJU32e2Kec-188" value="&lt;u&gt;&lt;b&gt;bv&lt;/b&gt;&lt;/u&gt;" style="ellipse;whiteSpace=wrap;html=1;" parent="1" vertex="1">
          <mxGeometry x="260" y="795" width="80" height="50" as="geometry" />
        </mxCell>
        <mxCell id="bVzP4BpmjJLJU32e2Kec-189" value="&lt;u&gt;&lt;b&gt;mid&lt;/b&gt;&lt;/u&gt;" style="ellipse;whiteSpace=wrap;html=1;" parent="1" vertex="1">
          <mxGeometry x="180" y="765" width="80" height="50" as="geometry" />
        </mxCell>
        <mxCell id="bVzP4BpmjJLJU32e2Kec-190" value="" style="endArrow=none;html=1;rounded=0;entryX=0.5;entryY=1;entryDx=0;entryDy=0;exitX=0.5;exitY=0;exitDx=0;exitDy=0;" parent="1" source="bVzP4BpmjJLJU32e2Kec-189" target="bVzP4BpmjJLJU32e2Kec-187" edge="1">
          <mxGeometry width="50" height="50" relative="1" as="geometry">
            <mxPoint x="340" y="605" as="sourcePoint" />
            <mxPoint x="390" y="555" as="targetPoint" />
          </mxGeometry>
        </mxCell>
        <mxCell id="bVzP4BpmjJLJU32e2Kec-191" value="" style="endArrow=none;html=1;rounded=0;entryX=0.5;entryY=0;entryDx=0;entryDy=0;exitX=0.5;exitY=1;exitDx=0;exitDy=0;" parent="1" source="bVzP4BpmjJLJU32e2Kec-187" target="bVzP4BpmjJLJU32e2Kec-188" edge="1">
          <mxGeometry width="50" height="50" relative="1" as="geometry">
            <mxPoint x="340" y="605" as="sourcePoint" />
            <mxPoint x="390" y="555" as="targetPoint" />
          </mxGeometry>
        </mxCell>
        <mxCell id="bVzP4BpmjJLJU32e2Kec-192" value="" style="endArrow=none;html=1;rounded=0;exitX=0.5;exitY=0;exitDx=0;exitDy=0;entryX=0.5;entryY=1;entryDx=0;entryDy=0;" parent="1" source="bVzP4BpmjJLJU32e2Kec-187" target="bVzP4BpmjJLJU32e2Kec-170" edge="1">
          <mxGeometry width="50" height="50" relative="1" as="geometry">
            <mxPoint x="700" y="670" as="sourcePoint" />
            <mxPoint x="430" y="580" as="targetPoint" />
          </mxGeometry>
        </mxCell>
        <mxCell id="bVzP4BpmjJLJU32e2Kec-193" value="timestamp" style="ellipse;whiteSpace=wrap;html=1;" parent="1" vertex="1">
          <mxGeometry x="330" y="765" width="80" height="50" as="geometry" />
        </mxCell>
        <mxCell id="bVzP4BpmjJLJU32e2Kec-194" value="" style="endArrow=none;html=1;rounded=0;entryX=0.5;entryY=0;entryDx=0;entryDy=0;exitX=0.5;exitY=1;exitDx=0;exitDy=0;" parent="1" source="bVzP4BpmjJLJU32e2Kec-187" target="bVzP4BpmjJLJU32e2Kec-193" edge="1">
          <mxGeometry width="50" height="50" relative="1" as="geometry">
            <mxPoint x="310" y="735" as="sourcePoint" />
            <mxPoint x="310" y="805" as="targetPoint" />
          </mxGeometry>
        </mxCell>
        <mxCell id="bVzP4BpmjJLJU32e2Kec-205" value="following_relationship" style="rounded=0;whiteSpace=wrap;html=1;" parent="1" vertex="1">
          <mxGeometry x="640.54" y="68.74" width="120" height="60" as="geometry" />
        </mxCell>
        <mxCell id="bVzP4BpmjJLJU32e2Kec-206" value="&lt;b&gt;&lt;u&gt;followed&lt;/u&gt;&lt;/b&gt;" style="ellipse;whiteSpace=wrap;html=1;" parent="1" vertex="1">
          <mxGeometry x="810.54" y="108.74" width="80" height="50" as="geometry" />
        </mxCell>
        <mxCell id="bVzP4BpmjJLJU32e2Kec-207" value="&lt;b&gt;&lt;u&gt;follower&lt;/u&gt;&lt;/b&gt;" style="ellipse;whiteSpace=wrap;html=1;" parent="1" vertex="1">
          <mxGeometry x="810.54" y="38.739999999999995" width="80" height="50" as="geometry" />
        </mxCell>
        <mxCell id="bVzP4BpmjJLJU32e2Kec-208" value="" style="endArrow=none;html=1;rounded=0;entryX=0;entryY=0.5;entryDx=0;entryDy=0;exitX=1;exitY=0.5;exitDx=0;exitDy=0;" parent="1" source="bVzP4BpmjJLJU32e2Kec-205" target="bVzP4BpmjJLJU32e2Kec-207" edge="1">
          <mxGeometry width="50" height="50" relative="1" as="geometry">
            <mxPoint x="240.54" y="128.74" as="sourcePoint" />
            <mxPoint x="430.54" y="258.74" as="targetPoint" />
          </mxGeometry>
        </mxCell>
        <mxCell id="bVzP4BpmjJLJU32e2Kec-209" value="" style="endArrow=none;html=1;rounded=0;entryX=0;entryY=0.5;entryDx=0;entryDy=0;exitX=1;exitY=0.5;exitDx=0;exitDy=0;" parent="1" source="bVzP4BpmjJLJU32e2Kec-205" target="bVzP4BpmjJLJU32e2Kec-206" edge="1">
          <mxGeometry width="50" height="50" relative="1" as="geometry">
            <mxPoint x="770.54" y="98.74" as="sourcePoint" />
            <mxPoint x="820.54" y="53.739999999999995" as="targetPoint" />
          </mxGeometry>
        </mxCell>
        <mxCell id="bVzP4BpmjJLJU32e2Kec-211" value="" style="endArrow=none;html=1;rounded=0;entryX=1;entryY=0.5;entryDx=0;entryDy=0;exitX=0;exitY=0.5;exitDx=0;exitDy=0;" parent="1" source="bVzP4BpmjJLJU32e2Kec-205" target="bVzP4BpmjJLJU32e2Kec-101" edge="1">
          <mxGeometry width="50" height="50" relative="1" as="geometry">
            <mxPoint x="665.54" y="298.74" as="sourcePoint" />
            <mxPoint x="529.4500061573822" y="171.2698129868545" as="targetPoint" />
          </mxGeometry>
        </mxCell>
        <mxCell id="bVzP4BpmjJLJU32e2Kec-228" value="watched/posted" style="rhombus;whiteSpace=wrap;html=1;rotation=15;" parent="1" vertex="1">
          <mxGeometry x="420" y="240" width="140" height="80" as="geometry" />
        </mxCell>
        <mxCell id="bVzP4BpmjJLJU32e2Kec-229" value="" style="endArrow=none;html=1;rounded=0;entryX=0.5;entryY=0;entryDx=0;entryDy=0;exitX=1;exitY=0.5;exitDx=0;exitDy=0;" parent="1" source="bVzP4BpmjJLJU32e2Kec-228" target="bVzP4BpmjJLJU32e2Kec-120" edge="1">
          <mxGeometry width="50" height="50" relative="1" as="geometry">
            <mxPoint x="440" y="480" as="sourcePoint" />
            <mxPoint x="490" y="430" as="targetPoint" />
          </mxGeometry>
        </mxCell>
        <mxCell id="bVzP4BpmjJLJU32e2Kec-232" value="danmu" style="rounded=0;whiteSpace=wrap;html=1;" parent="1" vertex="1">
          <mxGeometry x="30" y="640" width="120" height="60" as="geometry" />
        </mxCell>
        <mxCell id="bVzP4BpmjJLJU32e2Kec-236" value="mid" style="ellipse;whiteSpace=wrap;html=1;" parent="1" vertex="1">
          <mxGeometry x="-140" y="660" width="80" height="50" as="geometry" />
        </mxCell>
        <mxCell id="bVzP4BpmjJLJU32e2Kec-237" value="content" style="ellipse;whiteSpace=wrap;html=1;" parent="1" vertex="1">
          <mxGeometry x="-70" y="755" width="80" height="50" as="geometry" />
        </mxCell>
        <mxCell id="bVzP4BpmjJLJU32e2Kec-238" value="postTime" style="ellipse;whiteSpace=wrap;html=1;" parent="1" vertex="1">
          <mxGeometry y="790" width="80" height="50" as="geometry" />
        </mxCell>
        <mxCell id="bVzP4BpmjJLJU32e2Kec-239" value="bv" style="ellipse;whiteSpace=wrap;html=1;" parent="1" vertex="1">
          <mxGeometry x="-120" y="600" width="80" height="50" as="geometry" />
        </mxCell>
        <mxCell id="bVzP4BpmjJLJU32e2Kec-240" value="&lt;b&gt;&lt;u&gt;id&lt;/u&gt;&lt;/b&gt;" style="ellipse;whiteSpace=wrap;html=1;" parent="1" vertex="1">
          <mxGeometry x="-80" y="550" width="80" height="50" as="geometry" />
        </mxCell>
        <mxCell id="bVzP4BpmjJLJU32e2Kec-241" value="time" style="ellipse;whiteSpace=wrap;html=1;" parent="1" vertex="1">
          <mxGeometry x="-130" y="710" width="80" height="50" as="geometry" />
        </mxCell>
        <mxCell id="bVzP4BpmjJLJU32e2Kec-243" value="" style="endArrow=none;html=1;rounded=0;entryX=0;entryY=0.5;entryDx=0;entryDy=0;exitX=1;exitY=1;exitDx=0;exitDy=0;" parent="1" source="bVzP4BpmjJLJU32e2Kec-240" target="bVzP4BpmjJLJU32e2Kec-232" edge="1">
          <mxGeometry width="50" height="50" relative="1" as="geometry">
            <mxPoint x="110" y="550" as="sourcePoint" />
            <mxPoint x="160" y="500" as="targetPoint" />
          </mxGeometry>
        </mxCell>
        <mxCell id="bVzP4BpmjJLJU32e2Kec-244" value="" style="endArrow=none;html=1;rounded=0;exitX=1;exitY=0.5;exitDx=0;exitDy=0;entryX=0;entryY=0.5;entryDx=0;entryDy=0;" parent="1" source="bVzP4BpmjJLJU32e2Kec-239" target="bVzP4BpmjJLJU32e2Kec-232" edge="1">
          <mxGeometry width="50" height="50" relative="1" as="geometry">
            <mxPoint x="-1" y="603" as="sourcePoint" />
            <mxPoint x="-20" y="680" as="targetPoint" />
          </mxGeometry>
        </mxCell>
        <mxCell id="bVzP4BpmjJLJU32e2Kec-246" value="" style="endArrow=none;html=1;rounded=0;entryX=0;entryY=0.5;entryDx=0;entryDy=0;exitX=1;exitY=0.5;exitDx=0;exitDy=0;" parent="1" source="bVzP4BpmjJLJU32e2Kec-236" target="bVzP4BpmjJLJU32e2Kec-232" edge="1">
          <mxGeometry width="50" height="50" relative="1" as="geometry">
            <mxPoint x="9" y="613" as="sourcePoint" />
            <mxPoint x="50" y="695" as="targetPoint" />
          </mxGeometry>
        </mxCell>
        <mxCell id="bVzP4BpmjJLJU32e2Kec-247" value="" style="endArrow=none;html=1;rounded=0;entryX=0;entryY=0.5;entryDx=0;entryDy=0;exitX=1;exitY=0.5;exitDx=0;exitDy=0;" parent="1" source="bVzP4BpmjJLJU32e2Kec-241" target="bVzP4BpmjJLJU32e2Kec-232" edge="1">
          <mxGeometry width="50" height="50" relative="1" as="geometry">
            <mxPoint x="19" y="623" as="sourcePoint" />
            <mxPoint x="60" y="705" as="targetPoint" />
          </mxGeometry>
        </mxCell>
        <mxCell id="bVzP4BpmjJLJU32e2Kec-248" value="" style="endArrow=none;html=1;rounded=0;entryX=0.5;entryY=1;entryDx=0;entryDy=0;exitX=1;exitY=0;exitDx=0;exitDy=0;" parent="1" source="bVzP4BpmjJLJU32e2Kec-237" target="bVzP4BpmjJLJU32e2Kec-232" edge="1">
          <mxGeometry width="50" height="50" relative="1" as="geometry">
            <mxPoint x="29" y="633" as="sourcePoint" />
            <mxPoint x="70" y="715" as="targetPoint" />
          </mxGeometry>
        </mxCell>
        <mxCell id="bVzP4BpmjJLJU32e2Kec-249" value="" style="endArrow=none;html=1;rounded=0;entryX=0.5;entryY=1;entryDx=0;entryDy=0;exitX=0.5;exitY=0;exitDx=0;exitDy=0;" parent="1" source="bVzP4BpmjJLJU32e2Kec-238" target="bVzP4BpmjJLJU32e2Kec-232" edge="1">
          <mxGeometry width="50" height="50" relative="1" as="geometry">
            <mxPoint x="39" y="643" as="sourcePoint" />
            <mxPoint x="80" y="725" as="targetPoint" />
          </mxGeometry>
        </mxCell>
        <mxCell id="bVzP4BpmjJLJU32e2Kec-250" value="" style="endArrow=none;html=1;rounded=0;exitX=1;exitY=0.5;exitDx=0;exitDy=0;entryX=0.5;entryY=1;entryDx=0;entryDy=0;" parent="1" source="bVzP4BpmjJLJU32e2Kec-232" target="bVzP4BpmjJLJU32e2Kec-170" edge="1">
          <mxGeometry width="50" height="50" relative="1" as="geometry">
            <mxPoint x="130" y="580" as="sourcePoint" />
            <mxPoint x="430" y="580" as="targetPoint" />
          </mxGeometry>
        </mxCell>
        <mxCell id="bVzP4BpmjJLJU32e2Kec-251" value="likedBy" style="rounded=0;whiteSpace=wrap;html=1;" parent="1" vertex="1">
          <mxGeometry x="30" y="400" width="120" height="60" as="geometry" />
        </mxCell>
        <mxCell id="bVzP4BpmjJLJU32e2Kec-252" value="own" style="rhombus;whiteSpace=wrap;html=1;" parent="1" vertex="1">
          <mxGeometry x="20" y="510" width="140" height="80" as="geometry" />
        </mxCell>
        <mxCell id="bVzP4BpmjJLJU32e2Kec-253" value="" style="endArrow=none;html=1;rounded=0;entryX=0.5;entryY=1;entryDx=0;entryDy=0;exitX=0.5;exitY=0;exitDx=0;exitDy=0;" parent="1" source="bVzP4BpmjJLJU32e2Kec-252" target="bVzP4BpmjJLJU32e2Kec-251" edge="1">
          <mxGeometry width="50" height="50" relative="1" as="geometry">
            <mxPoint x="240" y="550" as="sourcePoint" />
            <mxPoint x="290" y="500" as="targetPoint" />
          </mxGeometry>
        </mxCell>
        <mxCell id="bVzP4BpmjJLJU32e2Kec-254" value="" style="endArrow=none;html=1;rounded=0;entryX=0.5;entryY=1;entryDx=0;entryDy=0;exitX=0.5;exitY=0;exitDx=0;exitDy=0;" parent="1" source="bVzP4BpmjJLJU32e2Kec-232" target="bVzP4BpmjJLJU32e2Kec-252" edge="1">
          <mxGeometry width="50" height="50" relative="1" as="geometry">
            <mxPoint x="100" y="520" as="sourcePoint" />
            <mxPoint x="100" y="470" as="targetPoint" />
          </mxGeometry>
        </mxCell>
        <mxCell id="bVzP4BpmjJLJU32e2Kec-255" value="&lt;b&gt;&lt;u&gt;id&lt;/u&gt;&lt;/b&gt;" style="ellipse;whiteSpace=wrap;html=1;" parent="1" vertex="1">
          <mxGeometry x="-90" y="370" width="80" height="50" as="geometry" />
        </mxCell>
        <mxCell id="bVzP4BpmjJLJU32e2Kec-256" value="&lt;u&gt;&lt;b&gt;mid&lt;/b&gt;&lt;/u&gt;" style="ellipse;whiteSpace=wrap;html=1;" parent="1" vertex="1">
          <mxGeometry x="-90" y="430" width="80" height="50" as="geometry" />
        </mxCell>
        <mxCell id="bVzP4BpmjJLJU32e2Kec-257" value="" style="endArrow=none;html=1;rounded=0;entryX=0;entryY=0.5;entryDx=0;entryDy=0;exitX=1;exitY=0.5;exitDx=0;exitDy=0;" parent="1" source="bVzP4BpmjJLJU32e2Kec-255" target="bVzP4BpmjJLJU32e2Kec-251" edge="1">
          <mxGeometry width="50" height="50" relative="1" as="geometry">
            <mxPoint x="-1" y="603" as="sourcePoint" />
            <mxPoint x="40" y="670" as="targetPoint" />
          </mxGeometry>
        </mxCell>
        <mxCell id="bVzP4BpmjJLJU32e2Kec-258" value="" style="endArrow=none;html=1;rounded=0;entryX=0;entryY=0.5;entryDx=0;entryDy=0;exitX=1;exitY=0.5;exitDx=0;exitDy=0;" parent="1" source="bVzP4BpmjJLJU32e2Kec-256" target="bVzP4BpmjJLJU32e2Kec-251" edge="1">
          <mxGeometry width="50" height="50" relative="1" as="geometry">
            <mxPoint x="9" y="613" as="sourcePoint" />
            <mxPoint x="50" y="680" as="targetPoint" />
          </mxGeometry>
        </mxCell>
        <mxCell id="Wf-vbxTbmXmnl0LeUo7J-1" value="" style="endArrow=none;html=1;rounded=0;entryX=1;entryY=1;entryDx=0;entryDy=0;exitX=0;exitY=0.5;exitDx=0;exitDy=0;" edge="1" parent="1" source="bVzP4BpmjJLJU32e2Kec-228" target="bVzP4BpmjJLJU32e2Kec-34">
          <mxGeometry width="50" height="50" relative="1" as="geometry">
            <mxPoint x="540" y="430" as="sourcePoint" />
            <mxPoint x="530" y="360" as="targetPoint" />
          </mxGeometry>
        </mxCell>
        <mxCell id="Wf-vbxTbmXmnl0LeUo7J-2" value="recognition&lt;br&gt;" style="rounded=0;whiteSpace=wrap;html=1;" vertex="1" parent="1">
          <mxGeometry x="555" y="665" width="120" height="60" as="geometry" />
        </mxCell>
        <mxCell id="Wf-vbxTbmXmnl0LeUo7J-3" value="&lt;u&gt;&lt;b&gt;bv&lt;/b&gt;&lt;/u&gt;" style="ellipse;whiteSpace=wrap;html=1;" vertex="1" parent="1">
          <mxGeometry x="465" y="790" width="80" height="50" as="geometry" />
        </mxCell>
        <mxCell id="Wf-vbxTbmXmnl0LeUo7J-4" value="&lt;u&gt;&lt;b&gt;mid&lt;/b&gt;&lt;/u&gt;" style="ellipse;whiteSpace=wrap;html=1;" vertex="1" parent="1">
          <mxGeometry x="425" y="740" width="80" height="50" as="geometry" />
        </mxCell>
        <mxCell id="Wf-vbxTbmXmnl0LeUo7J-5" value="" style="endArrow=none;html=1;rounded=0;entryX=0.5;entryY=1;entryDx=0;entryDy=0;exitX=1;exitY=0;exitDx=0;exitDy=0;" edge="1" parent="1" source="Wf-vbxTbmXmnl0LeUo7J-4" target="Wf-vbxTbmXmnl0LeUo7J-2">
          <mxGeometry width="50" height="50" relative="1" as="geometry">
            <mxPoint x="625" y="615" as="sourcePoint" />
            <mxPoint x="675" y="565" as="targetPoint" />
          </mxGeometry>
        </mxCell>
        <mxCell id="Wf-vbxTbmXmnl0LeUo7J-6" value="" style="endArrow=none;html=1;rounded=0;entryX=0.5;entryY=0;entryDx=0;entryDy=0;exitX=0.5;exitY=1;exitDx=0;exitDy=0;" edge="1" parent="1" source="Wf-vbxTbmXmnl0LeUo7J-2" target="Wf-vbxTbmXmnl0LeUo7J-3">
          <mxGeometry width="50" height="50" relative="1" as="geometry">
            <mxPoint x="625" y="615" as="sourcePoint" />
            <mxPoint x="675" y="565" as="targetPoint" />
          </mxGeometry>
        </mxCell>
        <mxCell id="Wf-vbxTbmXmnl0LeUo7J-8" value="" style="endArrow=none;html=1;rounded=0;entryX=0.5;entryY=0;entryDx=0;entryDy=0;exitX=0.5;exitY=1;exitDx=0;exitDy=0;" edge="1" parent="1" source="Wf-vbxTbmXmnl0LeUo7J-2" target="Wf-vbxTbmXmnl0LeUo7J-9">
          <mxGeometry width="50" height="50" relative="1" as="geometry">
            <mxPoint x="595" y="745" as="sourcePoint" />
            <mxPoint x="585" y="810" as="targetPoint" />
          </mxGeometry>
        </mxCell>
        <mxCell id="Wf-vbxTbmXmnl0LeUo7J-9" value="coin" style="ellipse;whiteSpace=wrap;html=1;" vertex="1" parent="1">
          <mxGeometry x="545" y="810" width="80" height="50" as="geometry" />
        </mxCell>
        <mxCell id="Wf-vbxTbmXmnl0LeUo7J-10" value="like" style="ellipse;whiteSpace=wrap;html=1;" vertex="1" parent="1">
          <mxGeometry x="625" y="800" width="80" height="50" as="geometry" />
        </mxCell>
        <mxCell id="Wf-vbxTbmXmnl0LeUo7J-11" value="favorite" style="ellipse;whiteSpace=wrap;html=1;" vertex="1" parent="1">
          <mxGeometry x="695" y="770" width="80" height="50" as="geometry" />
        </mxCell>
        <mxCell id="Wf-vbxTbmXmnl0LeUo7J-12" value="collected&lt;br&gt;" style="ellipse;whiteSpace=wrap;html=1;" vertex="1" parent="1">
          <mxGeometry x="735" y="720" width="80" height="50" as="geometry" />
        </mxCell>
        <mxCell id="Wf-vbxTbmXmnl0LeUo7J-13" value="" style="endArrow=none;html=1;rounded=0;exitX=0.5;exitY=1;exitDx=0;exitDy=0;entryX=0.5;entryY=0;entryDx=0;entryDy=0;" edge="1" parent="1" source="Wf-vbxTbmXmnl0LeUo7J-2" target="Wf-vbxTbmXmnl0LeUo7J-10">
          <mxGeometry width="50" height="50" relative="1" as="geometry">
            <mxPoint x="610" y="725" as="sourcePoint" />
            <mxPoint x="615" y="800" as="targetPoint" />
          </mxGeometry>
        </mxCell>
        <mxCell id="Wf-vbxTbmXmnl0LeUo7J-14" value="" style="endArrow=none;html=1;rounded=0;entryX=0.3;entryY=0.073;entryDx=0;entryDy=0;exitX=0.5;exitY=1;exitDx=0;exitDy=0;entryPerimeter=0;" edge="1" parent="1" source="Wf-vbxTbmXmnl0LeUo7J-2" target="Wf-vbxTbmXmnl0LeUo7J-11">
          <mxGeometry width="50" height="50" relative="1" as="geometry">
            <mxPoint x="620" y="735" as="sourcePoint" />
            <mxPoint x="615" y="830" as="targetPoint" />
          </mxGeometry>
        </mxCell>
        <mxCell id="Wf-vbxTbmXmnl0LeUo7J-15" value="" style="endArrow=none;html=1;rounded=0;entryX=0;entryY=0.5;entryDx=0;entryDy=0;exitX=0.5;exitY=1;exitDx=0;exitDy=0;" edge="1" parent="1" source="Wf-vbxTbmXmnl0LeUo7J-2" target="Wf-vbxTbmXmnl0LeUo7J-12">
          <mxGeometry width="50" height="50" relative="1" as="geometry">
            <mxPoint x="630" y="745" as="sourcePoint" />
            <mxPoint x="625" y="840" as="targetPoint" />
          </mxGeometry>
        </mxCell>
      </root>
    </mxGraphModel>
  </diagram>
</mxfile>
